# xmcd
#
# Track frame offsets:
#	182
#	21307
#	45232
#	65332
#	84082
#	104482
#	124282
#	146482
#	170332
#	198007
#	208582
#	232357
#	249757
#	269707
#	301282
#	336907
#
# Disc length: 4545 seconds
#
# Revision: 0
# Processed by: cddbd v1.4b42PL1 Copyright (c) Steve Scherf et al.
# Submitted via: dBpowerAMP V4.0
#
DISCID=e011bf10
DTITLE=Jeff Lang - Disturbed Folk
DYEAR=1900
DGENRE=Blues
TTITLE0=When he Talks to God
TTITLE1=Brad Milcroft Wins Again
TTITLE2=S.C.W.A.G.
TTITLE3=Something We Can Dance To
TTITLE4=Spot Fires
TTITLE5=Mother You Let Me Down
TTITLE6=Four-Foot Ogre
TTITLE7=Semaphore Waltz
TTITLE8=1952 Vincent Balck Lightning
TTITLE9=Bordertown Keith intro
TTITLE10=Bordertown Keith and the Tailem Benders
TTITLE11=Feeling this Way
TTITLE12=Father's Swan Song
TTITLE13=Could've Been a Killer
TTITLE14=Hear my Train a Comin'
TTITLE15=Bordertown Keith and the Tailem Benders - Keith's Crawl
EXTD=
EXTT0=
EXTT1=
EXTT2=
EXTT3=
EXTT4=
EXTT5=
EXTT6=
EXTT7=
EXTT8=
EXTT9=
EXTT10=
EXTT11=
EXTT12=
EXTT13=
EXTT14=
EXTT15=
PLAYORDER=
